<svg width="14" height="14" viewBox="0 0 14 14" fill="none" xmlns="http://www.w3.org/2000/svg">
<path fill-rule="evenodd" clip-rule="evenodd" d="M5.28567 4.97901H7.76167V6.21234C8.11834 5.50301 9.03301 4.86567 10.407 4.86567C13.041 4.86567 13.6663 6.27767 13.6663 8.86834V13.6663H10.9997V9.45834C10.9997 7.98301 10.643 7.15101 9.73501 7.15101C8.47568 7.15101 7.95234 8.04767 7.95234 9.45767V13.6663H5.28567V4.97901V4.97901ZM0.713008 13.553H3.37967V4.86567H0.713008V13.553V13.553ZM3.76167 2.03301C3.76177 2.25652 3.71745 2.47783 3.63127 2.68407C3.54509 2.8903 3.41878 3.07735 3.25967 3.23434C2.93727 3.55476 2.50088 3.73411 2.04634 3.73301C1.5926 3.7327 1.15722 3.55381 0.834341 3.23501C0.675815 3.07748 0.549932 2.89022 0.463904 2.68396C0.377875 2.4777 0.333394 2.25649 0.333008 2.03301C0.333008 1.58167 0.513008 1.14967 0.835008 0.831008C1.1576 0.51178 1.59317 0.332808 2.04701 0.333008C2.50167 0.333008 2.93767 0.512341 3.25967 0.831008C3.58101 1.14967 3.76167 1.58167 3.76167 2.03301Z" fill="#FF6500"/>
</svg>
