    <svg
      height="30"
      viewBox="0 0 200 30"
      fill="none"
      xmlns="http://www.w3.org/2000/svg">
      <path
        d="M1.66 22V8H8.5C10.26 8 11.58 8.33333 12.46 9C13.3533 9.66667 13.8 10.5467 13.8 11.64C13.8 12.3733 13.62 13.0133 13.26 13.56C12.9 14.0933 12.4067 14.5067 11.78 14.8C11.1533 15.0933 10.4333 15.24 9.62 15.24L10 14.42C10.88 14.42 11.66 14.5667 12.34 14.86C13.02 15.14 13.5467 15.56 13.92 16.12C14.3067 16.68 14.5 17.3667 14.5 18.18C14.5 19.38 14.0267 20.32 13.08 21C12.1333 21.6667 10.74 22 8.9 22H1.66ZM4.88 19.56H8.66C9.5 19.56 10.1333 19.4267 10.56 19.16C11 18.88 11.22 18.44 11.22 17.84C11.22 17.2533 11 16.82 10.56 16.54C10.1333 16.2467 9.5 16.1 8.66 16.1H4.64V13.74H8.1C8.88667 13.74 9.48667 13.6067 9.9 13.34C10.3267 13.06 10.54 12.64 10.54 12.08C10.54 11.5333 10.3267 11.1267 9.9 10.86C9.48667 10.58 8.88667 10.44 8.1 10.44H4.88V19.56ZM19.953 22V8H23.193V19.36H30.213V22H19.953ZM59.0514 22.24C57.9714 22.24 56.9647 22.0667 56.0314 21.72C55.1114 21.36 54.3114 20.8533 53.6314 20.2C52.9514 19.5467 52.4181 18.78 52.0314 17.9C51.6581 17.02 51.4714 16.0533 51.4714 15C51.4714 13.9467 51.6581 12.98 52.0314 12.1C52.4181 11.22 52.9514 10.4533 53.6314 9.8C54.3247 9.14667 55.1314 8.64667 56.0514 8.3C56.9714 7.94 57.9781 7.76 59.0714 7.76C60.2847 7.76 61.3781 7.97333 62.3514 8.4C63.3381 8.81333 64.1647 9.42667 64.8314 10.24L62.7514 12.16C62.2714 11.6133 61.7381 11.2067 61.1514 10.94C60.5647 10.66 59.9247 10.52 59.2314 10.52C58.5781 10.52 57.9781 10.6267 57.4314 10.84C56.8847 11.0533 56.4114 11.36 56.0114 11.76C55.6114 12.16 55.2981 12.6333 55.0714 13.18C54.8581 13.7267 54.7514 14.3333 54.7514 15C54.7514 15.6667 54.8581 16.2733 55.0714 16.82C55.2981 17.3667 55.6114 17.84 56.0114 18.24C56.4114 18.64 56.8847 18.9467 57.4314 19.16C57.9781 19.3733 58.5781 19.48 59.2314 19.48C59.9247 19.48 60.5647 19.3467 61.1514 19.08C61.7381 18.8 62.2714 18.38 62.7514 17.82L64.8314 19.74C64.1647 20.5533 63.3381 21.1733 62.3514 21.6C61.3781 22.0267 60.2781 22.24 59.0514 22.24ZM72.9194 18.8L72.7394 15.06L79.4394 8H83.0394L76.9994 14.5L75.1994 16.42L72.9194 18.8ZM70.0194 22V8H73.2394V22H70.0194ZM79.5994 22L74.6194 15.9L76.7394 13.6L83.3794 22H79.5994ZM96.4881 22V8H99.1681L105.128 17.88H103.708L109.568 8H112.228L112.268 22H109.228L109.208 12.66H109.768L105.088 20.52H103.628L98.8481 12.66H99.5281V22H96.4881ZM116.75 22L122.99 8H126.19L132.45 22H129.05L123.93 9.64H125.21L120.07 22H116.75ZM119.87 19L120.73 16.54H127.93L128.81 19H119.87ZM136.902 22V8H142.962C144.216 8 145.296 8.20667 146.202 8.62C147.109 9.02 147.809 9.6 148.302 10.36C148.796 11.12 149.042 12.0267 149.042 13.08C149.042 14.12 148.796 15.02 148.302 15.78C147.809 16.5267 147.109 17.1 146.202 17.5C145.296 17.9 144.216 18.1 142.962 18.1H138.702L140.142 16.68V22H136.902ZM145.802 22L142.302 16.92H145.762L149.302 22H145.802ZM140.142 17.04L138.702 15.52H142.782C143.782 15.52 144.529 15.3067 145.022 14.88C145.516 14.44 145.762 13.84 145.762 13.08C145.762 12.3067 145.516 11.7067 145.022 11.28C144.529 10.8533 143.782 10.64 142.782 10.64H138.702L140.142 9.1V17.04ZM157.509 18.8L157.329 15.06L164.029 8H167.629L161.589 14.5L159.789 16.42L157.509 18.8ZM154.609 22V8H157.829V22H154.609ZM164.189 22L159.209 15.9L161.329 13.6L167.969 22H164.189ZM175.394 13.64H182.134V16.16H175.394V13.64ZM175.634 19.4H183.254V22H172.414V8H182.994V10.6H175.634V19.4ZM191.732 22V10.64H187.252V8H199.452V10.64H194.972V22H191.732Z"
        fill="white"
      />
      <path d="M41.5 7L48.8612 22H34.1388L41.5 7Z" fill="#FF6500" />
    </svg>

