<svg width="320" height="34" viewBox="0 0 320 34" fill="none" xmlns="http://www.w3.org/2000/svg">
<path d="M2.656 26V3.6H13.6C16.416 3.6 18.528 4.13333 19.936 5.2C21.3653 6.26667 22.08 7.67467 22.08 9.424C22.08 10.5973 21.792 11.6213 21.216 12.496C20.64 13.3493 19.8507 14.0107 18.848 14.48C17.8453 14.9493 16.6933 15.184 15.392 15.184L16 13.872C17.408 13.872 18.656 14.1067 19.744 14.576C20.832 15.024 21.6747 15.696 22.272 16.592C22.8907 17.488 23.2 18.5867 23.2 19.888C23.2 21.808 22.4427 23.312 20.928 24.4C19.4133 25.4667 17.184 26 14.24 26H2.656ZM7.808 22.096H13.856C15.2 22.096 16.2133 21.8827 16.896 21.456C17.6 21.008 17.952 20.304 17.952 19.344C17.952 18.4053 17.6 17.712 16.896 17.264C16.2133 16.7947 15.2 16.56 13.856 16.56H7.424V12.784H12.96C14.2187 12.784 15.1787 12.5707 15.84 12.144C16.5227 11.696 16.864 11.024 16.864 10.128C16.864 9.25333 16.5227 8.60267 15.84 8.176C15.1787 7.728 14.2187 7.504 12.96 7.504H7.808V22.096ZM31.9247 26V3.6H37.1087V21.776H48.3407V26H31.9247ZM94.4822 26.384C92.7542 26.384 91.1436 26.1067 89.6502 25.552C88.1782 24.976 86.8982 24.1653 85.8102 23.12C84.7222 22.0747 83.8689 20.848 83.2502 19.44C82.6529 18.032 82.3542 16.4853 82.3542 14.8C82.3542 13.1147 82.6529 11.568 83.2502 10.16C83.8689 8.752 84.7222 7.52533 85.8102 6.48C86.9196 5.43467 88.2102 4.63467 89.6822 4.08C91.1542 3.504 92.7649 3.216 94.5142 3.216C96.4556 3.216 98.2049 3.55733 99.7622 4.24C101.341 4.90133 102.664 5.88267 103.73 7.184L100.402 10.256C99.6342 9.38133 98.7809 8.73067 97.8422 8.304C96.9036 7.856 95.8796 7.632 94.7702 7.632C93.7249 7.632 92.7649 7.80267 91.8902 8.144C91.0156 8.48533 90.2582 8.976 89.6182 9.616C88.9782 10.256 88.4769 11.0133 88.1142 11.888C87.7729 12.7627 87.6022 13.7333 87.6022 14.8C87.6022 15.8667 87.7729 16.8373 88.1142 17.712C88.4769 18.5867 88.9782 19.344 89.6182 19.984C90.2582 20.624 91.0156 21.1147 91.8902 21.456C92.7649 21.7973 93.7249 21.968 94.7702 21.968C95.8796 21.968 96.9036 21.7547 97.8422 21.328C98.7809 20.88 99.6342 20.208 100.402 19.312L103.73 22.384C102.664 23.6853 101.341 24.6773 99.7622 25.36C98.2049 26.0427 96.4449 26.384 94.4822 26.384ZM116.671 20.88L116.383 14.896L127.103 3.6H132.863L123.199 14L120.319 17.072L116.671 20.88ZM112.031 26V3.6H117.183V26H112.031ZM127.359 26L119.391 16.24L122.783 12.56L133.407 26H127.359ZM154.381 26V3.6H158.669L168.205 19.408H165.933L175.309 3.6H179.565L179.629 26H174.765L174.733 11.056H175.629L168.141 23.632H165.805L158.157 11.056H159.245V26H154.381ZM186.799 26L196.783 3.6H201.903L211.919 26H206.479L198.287 6.224H200.335L192.111 26H186.799ZM191.791 21.2L193.167 17.264H204.687L206.095 21.2H191.791ZM219.043 26V3.6H228.739C230.745 3.6 232.473 3.93067 233.923 4.592C235.374 5.232 236.494 6.16 237.283 7.376C238.073 8.592 238.467 10.0427 238.467 11.728C238.467 13.392 238.073 14.832 237.283 16.048C236.494 17.2427 235.374 18.16 233.923 18.8C232.473 19.44 230.745 19.76 228.739 19.76H221.923L224.227 17.488V26H219.043ZM233.283 26L227.683 17.872H233.219L238.883 26H233.283ZM224.227 18.064L221.923 15.632H228.451C230.051 15.632 231.246 15.2907 232.035 14.608C232.825 13.904 233.219 12.944 233.219 11.728C233.219 10.4907 232.825 9.53067 232.035 8.848C231.246 8.16533 230.051 7.824 228.451 7.824H221.923L224.227 5.36V18.064ZM252.015 20.88L251.727 14.896L262.447 3.6H268.207L258.543 14L255.663 17.072L252.015 20.88ZM247.375 26V3.6H252.527V26H247.375ZM262.703 26L254.735 16.24L258.127 12.56L268.751 26H262.703ZM280.63 12.624H291.414V16.656H280.63V12.624ZM281.014 21.84H293.206V26H275.862V3.6H292.79V7.76H281.014V21.84ZM306.771 26V7.824H299.603V3.6H319.123V7.824H311.955V26H306.771Z" fill="black"/>
<path d="M66.5 2L78.1913 26H54.8087L66.5 2Z" fill="#FF6500"/>
</svg>
